<svg xmlns="http://www.w3.org/2000/svg" xmlns:xlink="http://www.w3.org/1999/xlink" width="500" zoomAndPan="magnify" viewBox="0 0 375 374.999991" height="500" preserveAspectRatio="xMidYMid meet" version="1.0"><path fill="#ffffff" d="M -10.050781 -29.101562 L 391.046875 -29.101562 L 391.046875 371.996094 L -10.050781 371.996094 Z M -10.050781 -29.101562 " fill-opacity="1" fill-rule="nonzero"/><path fill="#000000" d="M 266.585938 345.675781 C 262.332031 347.007812 258.488281 349.164062 254.386719 350.769531 C 247.910156 353.308594 240.964844 355.667969 234.273438 357.472656 C 216.179688 362.34375 197.511719 364.175781 178.8125 363.191406 C 173.058594 362.886719 166.480469 362.738281 160.792969 361.6875 C 142.683594 358.335938 123.289062 352.589844 106.984375 344.054688 C 64.261719 322.058594 32.261719 283.707031 18.269531 237.738281 C 4.59375 192.761719 9.277344 144.199219 31.292969 102.664062 C 53.574219 60.714844 91.730469 29.433594 137.238281 15.820312 C 181.613281 2.566406 229.414062 7.207031 270.40625 28.757812 C 312.5 50.785156 344.011719 88.753906 357.90625 134.183594 C 368.710938 170.167969 368.011719 208.632812 355.902344 244.199219 C 347.058594 269.644531 330.292969 296.601562 310.289062 314.710938 C 303.679688 309.285156 297.257812 302.402344 291.222656 296.269531 L 262.128906 266.671875 L 223.171875 228.070312 C 215.339844 220.253906 207.050781 212.230469 199.824219 203.882812 C 205.050781 206.351562 212.34375 208.097656 218.136719 209.992188 L 261.78125 224.117188 L 276.238281 228.835938 C 278.582031 229.585938 282.765625 230.703125 284.90625 231.617188 C 290.964844 217.75 294.953125 202.660156 295.210938 187.445312 C 295.441406 173.796875 291.996094 157.925781 287 145.230469 C 276.988281 119.796875 255.425781 98.386719 230.449219 87.582031 C 205.625 76.84375 174.671875 75.953125 149.472656 85.972656 C 122.960938 96.289062 101.621094 116.699219 90.132812 142.726562 C 78.511719 169.464844 78.140625 199.757812 89.109375 226.769531 C 99.15625 252.011719 120.460938 273.632812 145.390625 284.359375 C 171.519531 295.625 201.054688 296.039062 227.484375 285.515625 C 231.738281 283.8125 244.867188 277.3125 248.132812 274.46875 C 250.019531 277 255.660156 282.644531 258.101562 285.21875 L 276.125 304.335938 L 340.605469 371.996094 L 333.3125 371.996094 C 331.925781 371.210938 329.390625 370.335938 327.851562 369.707031 C 323.742188 368.027344 319.539062 366.527344 315.421875 364.863281 L 291.332031 355.378906 C 285.230469 352.925781 279.242188 350.488281 273.039062 348.261719 C 270.882812 347.484375 268.757812 346.429688 266.585938 345.675781 Z M 266.585938 345.675781 " fill-opacity="1" fill-rule="nonzero"/></svg>